<svg width="16" height="22" viewBox="0 0 16 22" fill="none" xmlns="http://www.w3.org/2000/svg">
<path d="M3.69068 20.0621C3.79852 20.1393 3.9196 20.1746 4.04093 20.1642C4.16226 20.1539 4.27925 20.0983 4.37934 20.0035L13.046 11.7535C13.1346 11.6691 13.2069 11.5565 13.2569 11.4253C13.3069 11.294 13.333 11.1481 13.333 11C13.333 10.8518 13.3069 10.7059 13.2569 10.5747C13.2069 10.4435 13.1346 10.3308 13.046 10.2465L4.37934 1.99648C4.27933 1.90132 4.16228 1.8456 4.04089 1.83534C3.91949 1.82509 3.79837 1.86069 3.69063 1.9383C3.58289 2.01591 3.49265 2.13257 3.42967 2.27564C3.3667 2.41871 3.33338 2.58274 3.33334 2.74998V19.25C3.33332 19.4173 3.36661 19.5814 3.4296 19.7246C3.49259 19.8678 3.58288 19.9845 3.69068 20.0621Z" fill="white"/>
</svg>
