<svg width="22" height="23" viewBox="0 0 22 23" fill="none" xmlns="http://www.w3.org/2000/svg">
<path fill-rule="evenodd" clip-rule="evenodd" d="M11.0183 2.79346C8.94804 2.79346 7.06154 3.47729 5.9455 4.036C5.84467 4.08642 5.75071 4.13592 5.66316 4.18358C5.48991 4.278 5.34233 4.366 5.225 4.44346L6.49458 6.31254L7.09225 6.55042C9.42792 7.72879 12.5602 7.72879 14.8963 6.55042L15.5746 6.19842L16.7755 4.44346C16.5267 4.2812 16.268 4.13471 16.0009 4.00483C14.8908 3.45208 13.0497 2.79346 11.0183 2.79346ZM8.06529 4.90912C7.61572 4.825 7.17169 4.71357 6.73566 4.57546C7.78112 4.11117 9.33946 3.61846 11.0179 3.61846C12.1807 3.61846 13.2802 3.85496 14.1895 4.15471C13.1239 4.30458 11.9868 4.55896 10.9033 4.872C10.0508 5.11858 9.05437 5.092 8.06529 4.90912ZM15.3803 7.23012L15.268 7.28696C12.6981 8.58312 9.28996 8.58312 6.72008 7.28696L6.61375 7.23287C2.75367 11.4683 -0.193418 19.2921 11.0183 19.2921C22.2292 19.2921 19.2101 11.3221 15.3803 7.23012ZM10.5417 11.0435C10.2985 11.0435 10.0654 11.14 9.89348 11.3119C9.72158 11.4839 9.625 11.717 9.625 11.9601C9.625 12.2032 9.72158 12.4364 9.89348 12.6083C10.0654 12.7802 10.2985 12.8768 10.5417 12.8768V11.0435ZM11.4583 10.1268V9.66846H10.5417V10.1268C10.0554 10.1268 9.58912 10.3199 9.2453 10.6638C8.90149 11.0076 8.70833 11.4739 8.70833 11.9601C8.70833 12.4464 8.90149 12.9127 9.2453 13.2565C9.58912 13.6003 10.0554 13.7935 10.5417 13.7935V15.6268C10.3521 15.6268 10.1672 15.5681 10.0124 15.4587C9.85755 15.3493 9.74047 15.1946 9.67725 15.0158C9.63677 14.9012 9.55241 14.8074 9.44274 14.7549C9.33306 14.7025 9.20704 14.6958 9.09241 14.7362C8.97779 14.7767 8.88393 14.8611 8.8315 14.9708C8.77907 15.0804 8.77235 15.2065 8.81283 15.3211C8.93926 15.6786 9.1734 15.9881 9.48301 16.207C9.79262 16.4259 10.1625 16.5435 10.5417 16.5435V17.0018H11.4583V16.5435C11.9446 16.5435 12.4109 16.3503 12.7547 16.0065C13.0985 15.6627 13.2917 15.1964 13.2917 14.7101C13.2917 14.2239 13.0985 13.7576 12.7547 13.4138C12.4109 13.0699 11.9446 12.8768 11.4583 12.8768V11.0435C11.8571 11.0435 12.1967 11.2978 12.3232 11.6544C12.342 11.7128 12.3723 11.7667 12.4122 11.8132C12.4522 11.8596 12.5011 11.8975 12.5561 11.9248C12.611 11.952 12.6708 11.9679 12.732 11.9716C12.7931 11.9752 12.8544 11.9666 12.9122 11.9462C12.97 11.9258 13.0231 11.894 13.0684 11.8527C13.1136 11.8114 13.1502 11.7614 13.1758 11.7058C13.2015 11.6501 13.2157 11.5899 13.2176 11.5286C13.2196 11.4674 13.2092 11.4063 13.1872 11.3492C13.0607 10.9917 12.8266 10.6822 12.517 10.4633C12.2074 10.2443 11.8375 10.1268 11.4583 10.1268ZM11.4583 13.7935V15.6268C11.7014 15.6268 11.9346 15.5302 12.1065 15.3583C12.2784 15.1864 12.375 14.9532 12.375 14.7101C12.375 14.467 12.2784 14.2339 12.1065 14.0619C11.9346 13.89 11.7014 13.7935 11.4583 13.7935Z" fill="white"/>
</svg>
