<svg width="22" height="22" viewBox="0 0 22 22" fill="none" xmlns="http://www.w3.org/2000/svg">
<path d="M18.6248 3.6502L11.3244 1.1623C11.2363 1.13223 11.1182 1.11719 11 1.11719C10.8818 1.11719 10.7637 1.13223 10.6756 1.1623L3.3752 3.6502C3.19688 3.71035 3.05078 3.9166 3.05078 4.10566V14.4697C3.05078 14.6588 3.17324 14.908 3.32148 15.0262L10.7271 20.7969C10.8023 20.8549 10.899 20.885 10.9979 20.885C11.0967 20.885 11.1955 20.8549 11.2686 20.7969L18.6742 15.0262C18.8225 14.9102 18.9449 14.6609 18.9449 14.4697V4.10566C18.9492 3.9166 18.8031 3.7125 18.6248 3.6502ZM14.9209 7.31973L10.3533 13.6082C10.3212 13.6522 10.2792 13.6879 10.2306 13.7126C10.1821 13.7372 10.1285 13.75 10.074 13.75C10.0196 13.75 9.96593 13.7372 9.9174 13.7126C9.86887 13.6879 9.82684 13.6522 9.79473 13.6082L7.0791 9.86992C6.99746 9.75605 7.0791 9.59707 7.21875 9.59707H8.40469C8.51426 9.59707 8.61953 9.65078 8.68398 9.73887L10.074 11.651L13.316 7.18652C13.3805 7.09844 13.4836 7.04473 13.5953 7.04473H14.7812C14.9209 7.04688 15.0025 7.20586 14.9209 7.31973Z" fill="white"/>
</svg>
