<svg width="22" height="22" viewBox="0 0 22 22" fill="none" xmlns="http://www.w3.org/2000/svg">
<g clip-path="url(#clip0_14_10)">
<path d="M11 1.22223C9.06615 1.22223 7.17572 1.79569 5.56777 2.87008C3.95982 3.94448 2.70658 5.47156 1.96652 7.25821C1.22647 9.04487 1.03283 11.0109 1.41011 12.9076C1.78739 14.8043 2.71863 16.5465 4.08608 17.9139C5.45353 19.2814 7.19576 20.2126 9.09246 20.5899C10.9892 20.9672 12.9551 20.7736 14.7418 20.0335C16.5285 19.2934 18.0555 18.0402 19.1299 16.4323C20.2043 14.8243 20.7778 12.9339 20.7778 11C20.7778 8.40678 19.7476 5.91976 17.9139 4.08607C16.0803 2.25239 13.5932 1.22223 11 1.22223ZM3.9539 11.6111H2.47501C2.47501 11.4095 2.44446 11.2078 2.44446 11C2.44446 10.7922 2.44446 10.5906 2.47501 10.3889H3.9539V11.6111ZM10.3889 2.47501C10.5906 2.47501 10.7922 2.44445 11 2.44445C11.2078 2.44445 11.4095 2.44445 11.6111 2.47501V3.9539H10.3889V2.47501ZM11.6111 19.525C11.4095 19.525 11.2078 19.5556 11 19.5556C10.7922 19.5556 10.5906 19.5556 10.3889 19.525V18.0461H11.6111V19.525ZM16.5 16.115C16.4498 16.1748 16.3815 16.2166 16.3055 16.2342C16.2294 16.2518 16.1497 16.2443 16.0783 16.2128L9.62501 12.4545L5.86668 6.00112C5.7139 5.7139 6.10501 5.3289 6.39223 5.48778L12.7295 9.35612L16.5978 15.6933C16.6293 15.7647 16.6368 15.8444 16.6192 15.9205C16.6016 15.9965 16.5598 16.0648 16.5 16.115ZM18.0461 11.6111V10.3889H19.525C19.525 10.5906 19.5556 10.7922 19.5556 11C19.5556 11.2078 19.5556 11.4095 19.525 11.6111H18.0461Z" fill="white"/>
<path d="M10.2483 11.825L14.8805 14.5261L12.1 9.97943L10.2483 11.825Z" fill="white"/>
</g>
<defs>
<clipPath id="clip0_14_10">
<rect width="22" height="22" fill="white"/>
</clipPath>
</defs>
</svg>
