<svg width="22" height="22" viewBox="0 0 22 22" fill="none" xmlns="http://www.w3.org/2000/svg">
<path d="M11 1.375C5.68477 1.375 1.375 5.68477 1.375 11C1.375 16.3152 5.68477 20.625 11 20.625C16.3152 20.625 20.625 16.3152 20.625 11C20.625 5.68477 16.3152 1.375 11 1.375ZM11.4791 15.6664L11.4834 16.3475C11.4834 16.442 11.4061 16.5215 11.3115 16.5215H10.7014C10.6068 16.5215 10.5295 16.4441 10.5295 16.3496V15.675C8.62168 15.5332 7.72363 14.4461 7.62695 13.2645C7.61836 13.1635 7.69785 13.0775 7.79883 13.0775H8.79141C8.8752 13.0775 8.94824 13.1377 8.96113 13.2193C9.0707 13.9004 9.60137 14.4096 10.5531 14.5363V11.4705L10.0225 11.3352C8.89883 11.0666 7.82891 10.3662 7.82891 8.91387C7.82891 7.34766 9.01914 6.50547 10.5402 6.35723V5.64824C10.5402 5.55371 10.6176 5.47637 10.7121 5.47637H11.3158C11.4104 5.47637 11.4877 5.55371 11.4877 5.64824V6.35078C12.9594 6.49902 14.0637 7.3584 14.1926 8.69687C14.2033 8.79785 14.1238 8.88594 14.0207 8.88594H13.0561C12.9701 8.88594 12.8971 8.82148 12.8863 8.7377C12.8004 8.11035 12.2977 7.59902 11.4791 7.4873V10.3727L12.0248 10.4994C13.417 10.8432 14.3645 11.5092 14.3645 13.0002C14.3645 14.618 13.1613 15.5203 11.4791 15.6664ZM9.16523 8.81504C9.16523 9.36074 9.50254 9.78398 10.2287 10.0461C10.3297 10.0869 10.4307 10.1191 10.551 10.1535V7.48945C9.7582 7.59043 9.16523 8.03516 9.16523 8.81504ZM11.6682 11.7197C11.608 11.7068 11.5479 11.6918 11.4791 11.6725V14.5449C12.3943 14.4633 13.026 13.9605 13.026 13.1184C13.026 12.4588 12.6844 12.0291 11.6682 11.7197Z" fill="white"/>
</svg>
