<svg width="22" height="22" viewBox="0 0 22 22" fill="none" xmlns="http://www.w3.org/2000/svg">
<path d="M17.875 13.4062C17.875 12.8592 17.6577 12.3346 17.2709 11.9478C16.8841 11.561 16.3595 11.3437 15.8125 11.3437H6.1875C5.64049 11.3437 5.11589 11.561 4.72909 11.9478C4.3423 12.3346 4.125 12.8592 4.125 13.4062V14.0937C4.125 16.8039 6.6825 19.5937 11 19.5937C15.3175 19.5937 17.875 16.8039 17.875 14.0937V13.4062ZM14.7812 6.1875C14.7813 5.37232 14.5179 4.57896 14.0304 3.92567C13.5428 3.27237 12.8572 2.79413 12.0757 2.56224C11.2942 2.33034 10.4587 2.3572 9.69369 2.63882C8.9287 2.92044 8.27521 3.44173 7.83063 4.125H5.5C5.31766 4.125 5.1428 4.19743 5.01386 4.32636C4.88493 4.45529 4.8125 4.63016 4.8125 4.8125V7.5625C4.8125 7.5845 4.8125 7.60512 4.81525 7.62575H4.8125V8.9375C4.8125 9.4845 5.0298 10.0091 5.41659 10.3959C5.80339 10.7827 6.32799 11 6.875 11H7.40712C7.54883 10.9999 7.68822 10.9641 7.81242 10.8959C7.93662 10.8276 8.04161 10.7292 8.11768 10.6096C8.19376 10.4901 8.23847 10.3533 8.24768 10.2119C8.25689 10.0705 8.2303 9.92905 8.17037 9.80064C8.11044 9.67223 8.0191 9.56101 7.9048 9.47725C7.7905 9.39349 7.65693 9.3399 7.51643 9.32143C7.37594 9.30297 7.23306 9.32022 7.10099 9.3716C6.96893 9.42297 6.85195 9.50681 6.76087 9.61537C6.60059 9.58839 6.45506 9.5055 6.35009 9.3814C6.24513 9.2573 6.18752 9.10003 6.1875 8.9375V8.25H6.53125C6.93963 8.25 7.3205 8.13037 7.64088 7.9255C8.03005 8.6785 8.66095 9.2789 9.43229 9.63032C10.2036 9.98175 11.0707 10.0638 11.8943 9.86335C12.7178 9.66289 13.4502 9.19152 13.9737 8.52492C14.4973 7.85831 14.7817 7.03512 14.7812 6.1875ZM7.21875 6.1875C7.21875 6.36983 7.14632 6.5447 7.01739 6.67363C6.88845 6.80256 6.71359 6.875 6.53125 6.875H6.1875V5.5H7.21875V6.1875Z" fill="white"/>
</svg>
